grf
version=1
nRows=11
nColumns=37
inDegrees=no
endheader
time	ground_force_1_vx	ground_force_1_vy	ground_force_1_vz	ground_force_1_px	ground_force_1_py	ground_force_1_pz	ground_moment_1_mx	ground_moment_1_my	ground_moment_1_mz	ground_force_2_vx	ground_force_2_vy	ground_force_2_vz	ground_force_2_px	ground_force_2_py	ground_force_2_pz	ground_moment_2_mx	ground_moment_2_my	ground_moment_2_mz	ground_force_3_vx	ground_force_3_vy	ground_force_3_vz	ground_force_3_px	ground_force_3_py	ground_force_3_pz	ground_moment_3_mx	ground_moment_3_my	ground_moment_3_mz	ground_force_4_vx	ground_force_4_vy	ground_force_4_vz	ground_force_4_px	ground_force_4_py	ground_force_4_pz	ground_moment_4_mx	ground_moment_4_my	ground_moment_4_mz
      0.00000000	      0.00000000	     -0.00000000	      0.00000000	      0.00000000	      0.00000000	      0.00000000	      0.00000000	      0.00000000	      0.00000000	    -10.41938496	     37.95132446	   -443.45751953	   -287.45125473	  -1048.18407269	      0.00000000	      0.00000000	      0.00000000	   3489.85473233	     10.16395045	    -38.11735242	   -551.24359131	   -329.50057142	   -732.88605262	      0.00000000	      0.00000000	     -0.00000000	  -2246.32225396	      0.00000000	     -0.00000000	      0.00000000	      0.00000000	      0.00000000	      0.00000000	      0.00000000	      0.00000000	      0.00000000
      0.01000000	      0.00000000	     -0.00000000	      0.00000000	      0.00000000	      0.00000000	      0.00000000	      0.00000000	      0.00000000	      0.00000000	    -10.72362804	     38.21859360	   -444.65356445	   -288.20927128	  -1049.47586533	      0.00000000	      0.00000000	      0.00000000	   3349.64392463	     10.14721919	    -38.06665128	   -551.73950195	   -329.45106049	   -732.79247594	      0.00000000	      0.00000000	     -0.00000000	  -2213.27035150	      0.00000000	     -0.00000000	      0.00000000	      0.00000000	      0.00000000	      0.00000000	      0.00000000	      0.00000000	      0.00000000
      0.02000000	      0.00000000	     -0.00000000	      0.00000000	      0.00000000	      0.00000000	      0.00000000	      0.00000000	      0.00000000	      0.00000000	    -10.70844078	     37.86196136	   -444.50726318	   -287.88426495	  -1049.30843080	      0.00000000	      0.00000000	      0.00000000	   3298.59939642	     10.25603439	    -37.97832579	   -550.46612549	   -329.89401129	   -732.99901910	      0.00000000	      0.00000000	     -0.00000000	  -2206.70796377	      0.00000000	     -0.00000000	      0.00000000	      0.00000000	      0.00000000	      0.00000000	      0.00000000	      0.00000000	      0.00000000
      0.03000000	      0.00000000	     -0.00000000	      0.00000000	      0.00000000	      0.00000000	      0.00000000	      0.00000000	      0.00000000	      0.00000000	    -10.97289276	     37.73935318	   -441.56384277	   -288.37723700	  -1046.76253168	      0.00000000	      0.00000000	      0.00000000	   3256.13458230	     10.23843049	    -38.24329466	   -551.16601562	   -330.04716555	   -732.76439246	      0.00000000	      0.00000000	     -0.00000000	  -2254.48600838	      0.00000000	     -0.00000000	      0.00000000	      0.00000000	      0.00000000	      0.00000000	      0.00000000	      0.00000000	      0.00000000
      0.04000000	      0.00000000	     -0.00000000	      0.00000000	      0.00000000	      0.00000000	      0.00000000	      0.00000000	      0.00000000	      0.00000000	    -10.66779423	     37.73959732	   -442.94418335	   -288.58057921	  -1047.80590118	      0.00000000	      0.00000000	      0.00000000	   3373.70152552	     10.14935351	    -38.13758557	   -551.03002930	   -330.35696900	   -732.92216326	      0.00000000	      0.00000000	     -0.00000000	  -2108.89348012	      0.00000000	     -0.00000000	      0.00000000	      0.00000000	      0.00000000	      0.00000000	      0.00000000	      0.00000000	      0.00000000
      0.05000000	      0.00000000	     -0.00000000	      0.00000000	      0.00000000	      0.00000000	      0.00000000	      0.00000000	      0.00000000	      0.00000000	    -10.56455231	     37.96448898	   -442.20138550	   -288.60500226	  -1048.04548506	      0.00000000	      0.00000000	      0.00000000	   3456.61034759	     10.29044775	    -37.73007292	   -551.03363037	   -330.25673132	   -732.51862606	      0.00000000	      0.00000000	     -0.00000000	  -2330.58244956	      0.00000000	     -0.00000000	      0.00000000	      0.00000000	      0.00000000	      0.00000000	      0.00000000	      0.00000000	      0.00000000
      0.06000000	      0.00000000	     -0.00000000	      0.00000000	      0.00000000	      0.00000000	      0.00000000	      0.00000000	      0.00000000	      0.00000000	    -10.61605072	     37.92603683	   -442.66238403	   -288.51812482	  -1048.66952659	      0.00000000	      0.00000000	      0.00000000	   3427.66153841	     10.09533360	    -37.94285290	   -550.05310059	   -330.69130525	   -733.40317550	      0.00000000	      0.00000000	     -0.00000000	  -2123.52536252	      0.00000000	     -0.00000000	      0.00000000	      0.00000000	      0.00000000	      0.00000000	      0.00000000	      0.00000000	      0.00000000
      0.07000000	      0.00000000	     -0.00000000	      0.00000000	      0.00000000	      0.00000000	      0.00000000	      0.00000000	      0.00000000	      0.00000000	    -10.07426262	     37.93767166	   -441.04614258	   -288.85546118	  -1047.28684463	      0.00000000	      0.00000000	      0.00000000	   3474.90033458	     10.37915852	    -37.94324584	   -551.44909668	   -330.58436890	   -732.49595491	      0.00000000	      0.00000000	     -0.00000000	  -2255.48754621	      0.00000000	     -0.00000000	      0.00000000	      0.00000000	      0.00000000	      0.00000000	      0.00000000	      0.00000000	      0.00000000
      0.08000000	      0.00000000	     -0.00000000	      0.00000000	      0.00000000	      0.00000000	      0.00000000	      0.00000000	      0.00000000	      0.00000000	    -10.48839569	     37.82970047	   -441.07296753	   -289.20637353	  -1047.69042064	      0.00000000	      0.00000000	      0.00000000	   3407.39184143	     10.69810726	    -38.03091524	   -552.07537842	   -330.79106393	   -733.02073570	      0.00000000	      0.00000000	     -0.00000000	  -2355.67804514	      0.00000000	     -0.00000000	      0.00000000	      0.00000000	      0.00000000	      0.00000000	      0.00000000	      0.00000000	      0.00000000
      0.09000000	      0.00000000	     -0.00000000	      0.00000000	      0.00000000	      0.00000000	      0.00000000	      0.00000000	      0.00000000	      0.00000000	    -10.37528229	     37.88042450	   -442.85791016	   -289.41083693	  -1048.48095258	      0.00000000	      0.00000000	      0.00000000	   3388.24929016	     10.60915136	    -38.25965211	   -550.19830322	   -331.39134517	   -734.29485233	      0.00000000	      0.00000000	     -0.00000000	  -2374.10902452	      0.00000000	     -0.00000000	      0.00000000	      0.00000000	      0.00000000	      0.00000000	      0.00000000	      0.00000000	      0.00000000
      0.10000000	      0.00000000	     -0.00000000	      0.00000000	      0.00000000	      0.00000000	      0.00000000	      0.00000000	      0.00000000	      0.00000000	    -10.48792744	     37.93067169	   -443.24084473	   -289.44551861	  -1049.19170048	      0.00000000	      0.00000000	      0.00000000	   3196.01661686	     10.50422811	    -38.25921341	   -553.04754639	   -331.24100597	   -732.38332447	      0.00000000	      0.00000000	     -0.00000000	  -2211.24347947	      0.00000000	     -0.00000000	      0.00000000	      0.00000000	      0.00000000	      0.00000000	      0.00000000	      0.00000000	      0.00000000
